# xmcd
#
# Track frame offsets: 
#        150
#        16812
#        40050
#        57772
#        69892
#        92860
#        112122
#        129315
#        155357
#        166830
#        177382
#        187917
#        198672
#        211557
#        225612
#        236857
#
# Disc length: 3292 seconds
#
# Revision: 3
# Processed by: cddbd v1.5.2PL0 Copyright (c) Steve Scherf et al.
# Submitted via: ExactAudioCopy v0.99pb4
#
DISCID=cb0cda10
DTITLE=Eric Clapton and The Yardbirds - Eric Clapton and The Yardbirds
DYEAR=1993
DGENRE=Blues/Rock
TTITLE0=Louise
TTITLE1=Five Long Years
TTITLE2=Early In The Morning
TTITLE3=Pounds And Stomps
TTITLE4=First Time I Met The Blues
TTITLE5=They Call It Stormy Monday Blues
TTITLE6=Big Boss Man
TTITLE7=She´s So Respectable
TTITLE8=Snake Drive
TTITLE9=West Coast Idea
TTITLE10=Eric´s Blues
TTITLE11=Got To Hurry
TTITLE12=Freight Loader
TTITLE13=Draggin´ My Tail
TTITLE14=For Your Love
TTITLE15=I Wish You Would
EXTD=
EXTT0=
EXTT1=
EXTT2=
EXTT3=
EXTT4=
EXTT5=
EXTT6=
EXTT7=
EXTT8=
EXTT9=
EXTT10=
EXTT11=
EXTT12=
EXTT13=
EXTT14=
EXTT15=
PLAYORDER=
